# xmcd
# 
# Track frame offsets:
#     183
#     25590
#     47423
#     64703
#     81290
#     98498
#     123500
#     143033
#     167463
# 
# Disc length: 2545
# 
# Revision: 8
# Processed by: cddbd v1.5.2PL0 Copyright (c) Steve Scherf et al.
# Submitted via: fre:ac v1.0.17
# 
DISCID=6409ef09
DTITLE=Duran Duran - Rio
DYEAR=1982
DGENRE=Rock
TTITLE0=Rio
TTITLE1=My Own Way
TTITLE2=Lonely In Your Nightmare
TTITLE3=Hungry Like The Wolf
TTITLE4=Hold Back The Rain
TTITLE5=New Religion
TTITLE6=Last Chance On The Stairway
TTITLE7=Save A Prayer
TTITLE8=The Chauffeur
EXTD=
EXTT0=
EXTT1=
EXTT2=
EXTT3=
EXTT4=
EXTT5=
EXTT6=
EXTT7=
EXTT8=
PLAYORDER=
